<mxfile host="Electron" modified="2024-04-16T13:02:32.460Z" agent="Mozilla/5.0 (Macintosh; Intel Mac OS X 10_15_7) AppleWebKit/537.36 (KHTML, like Gecko) draw.io/24.2.5 Chrome/120.0.6099.109 Electron/28.1.0 Safari/537.36" etag="Q8xh7UeaEI4wGrHPpp0m" version="24.2.5" type="device">
  <diagram name="第 1 页" id="y2dmYvw8xkNAWUuvXV0h">
    <mxGraphModel dx="954" dy="674" grid="1" gridSize="10" guides="1" tooltips="1" connect="1" arrows="1" fold="1" page="1" pageScale="1" pageWidth="827" pageHeight="1169" math="0" shadow="0">
      <root>
        <mxCell id="0" />
        <mxCell id="1" parent="0" />
        <mxCell id="X3x4aUmc52JOHwlSNNBY-3" style="edgeStyle=orthogonalEdgeStyle;rounded=0;orthogonalLoop=1;jettySize=auto;html=1;exitX=0.5;exitY=1;exitDx=0;exitDy=0;entryX=0.5;entryY=0;entryDx=0;entryDy=0;strokeWidth=2;" edge="1" parent="1" source="X3x4aUmc52JOHwlSNNBY-1" target="X3x4aUmc52JOHwlSNNBY-2">
          <mxGeometry relative="1" as="geometry" />
        </mxCell>
        <mxCell id="X3x4aUmc52JOHwlSNNBY-1" value="Service-A" style="rounded=1;whiteSpace=wrap;html=1;" vertex="1" parent="1">
          <mxGeometry x="160" y="160" width="120" height="60" as="geometry" />
        </mxCell>
        <mxCell id="X3x4aUmc52JOHwlSNNBY-5" style="edgeStyle=orthogonalEdgeStyle;rounded=0;orthogonalLoop=1;jettySize=auto;html=1;exitX=0.5;exitY=1;exitDx=0;exitDy=0;strokeWidth=2;" edge="1" parent="1" source="X3x4aUmc52JOHwlSNNBY-2" target="X3x4aUmc52JOHwlSNNBY-4">
          <mxGeometry relative="1" as="geometry" />
        </mxCell>
        <mxCell id="X3x4aUmc52JOHwlSNNBY-2" value="Service-B" style="rounded=1;whiteSpace=wrap;html=1;" vertex="1" parent="1">
          <mxGeometry x="160" y="280" width="120" height="60" as="geometry" />
        </mxCell>
        <mxCell id="X3x4aUmc52JOHwlSNNBY-6" style="edgeStyle=orthogonalEdgeStyle;rounded=0;orthogonalLoop=1;jettySize=auto;html=1;exitX=1;exitY=0.5;exitDx=0;exitDy=0;entryX=1;entryY=0.5;entryDx=0;entryDy=0;strokeColor=#FF3333;strokeWidth=2;" edge="1" parent="1" source="X3x4aUmc52JOHwlSNNBY-4" target="X3x4aUmc52JOHwlSNNBY-1">
          <mxGeometry relative="1" as="geometry">
            <Array as="points">
              <mxPoint x="400" y="430" />
              <mxPoint x="400" y="190" />
            </Array>
          </mxGeometry>
        </mxCell>
        <mxCell id="X3x4aUmc52JOHwlSNNBY-4" value="Service-C" style="rounded=1;whiteSpace=wrap;html=1;" vertex="1" parent="1">
          <mxGeometry x="160" y="400" width="120" height="60" as="geometry" />
        </mxCell>
        <mxCell id="X3x4aUmc52JOHwlSNNBY-8" value="Service-A" style="rounded=1;whiteSpace=wrap;html=1;" vertex="1" parent="1">
          <mxGeometry x="450" y="310" width="120" height="60" as="geometry" />
        </mxCell>
        <mxCell id="X3x4aUmc52JOHwlSNNBY-9" style="edgeStyle=orthogonalEdgeStyle;rounded=0;orthogonalLoop=1;jettySize=auto;html=1;exitX=0.5;exitY=1;exitDx=0;exitDy=0;strokeWidth=2;" edge="1" parent="1" source="X3x4aUmc52JOHwlSNNBY-10" target="X3x4aUmc52JOHwlSNNBY-11">
          <mxGeometry relative="1" as="geometry" />
        </mxCell>
        <mxCell id="X3x4aUmc52JOHwlSNNBY-10" value="Service-B" style="rounded=1;whiteSpace=wrap;html=1;" vertex="1" parent="1">
          <mxGeometry x="660" y="310" width="120" height="60" as="geometry" />
        </mxCell>
        <mxCell id="X3x4aUmc52JOHwlSNNBY-11" value="Service-C" style="rounded=1;whiteSpace=wrap;html=1;" vertex="1" parent="1">
          <mxGeometry x="660" y="430" width="120" height="60" as="geometry" />
        </mxCell>
        <mxCell id="X3x4aUmc52JOHwlSNNBY-13" style="edgeStyle=orthogonalEdgeStyle;rounded=0;orthogonalLoop=1;jettySize=auto;html=1;exitX=0.5;exitY=1;exitDx=0;exitDy=0;strokeWidth=2;" edge="1" parent="1" source="X3x4aUmc52JOHwlSNNBY-12" target="X3x4aUmc52JOHwlSNNBY-8">
          <mxGeometry relative="1" as="geometry">
            <mxPoint x="510" y="310" as="targetPoint" />
          </mxGeometry>
        </mxCell>
        <mxCell id="X3x4aUmc52JOHwlSNNBY-14" style="edgeStyle=orthogonalEdgeStyle;rounded=0;orthogonalLoop=1;jettySize=auto;html=1;exitX=0.5;exitY=1;exitDx=0;exitDy=0;strokeWidth=2;" edge="1" parent="1" source="X3x4aUmc52JOHwlSNNBY-12" target="X3x4aUmc52JOHwlSNNBY-10">
          <mxGeometry relative="1" as="geometry" />
        </mxCell>
        <mxCell id="X3x4aUmc52JOHwlSNNBY-12" value="Service-D" style="rounded=1;whiteSpace=wrap;html=1;" vertex="1" parent="1">
          <mxGeometry x="550" y="160" width="120" height="60" as="geometry" />
        </mxCell>
      </root>
    </mxGraphModel>
  </diagram>
</mxfile>
